<svg id="Layer_1" data-name="Layer 1" xmlns="http://www.w3.org/2000/svg" viewBox="0 0 305 282"><defs><style>.cls-1{fill:#00aeef;}</style></defs><title>LogoSmall</title><path class="cls-1" d="M154.57,2C70.27,2,2,65.28,2,143.42,2,215.16,59.85,275.62,136.67,284a2.71,2.71,0,0,0,3.07-2.28,2.6,2.6,0,0,0-2.4-2.82h0C56.78,270.19-.94,202.35,8.41,127.57,15.89,68.75,63.46,21.1,126.25,9.71c-10.69,7.27-17,18.77-17,31V58.44c-7.61.87-13.09,7.38-12.16,14.43.81,6.52,6.82,11.29,13.77,11.4h11.22v5.21h-15a2.77,2.77,0,0,0-2.8,2.39V208.11a2.83,2.83,0,0,0,.4,1.41l48.1,70.33a3,3,0,0,0,3.87.76,1.61,1.61,0,0,0,.8-.76l48.1-70.33v-.11c.13-.11.13-.33.27-.54v-.11c0-.22.13-.44.13-.65V92a2.63,2.63,0,0,0-.8-1.84,3.18,3.18,0,0,0-2-.76H186.9V84.16h11.23c7.75,0,13.89-5.86,13.89-13,0-6.52-5.34-12-12.29-12.81V40.64c0-12.27-6.28-23.77-17-31,79.63,14.43,131.6,86,116.1,159.87-12.15,58-63.06,102-126.25,109.18a2.5,2.5,0,0,0-2.14,3,2.68,2.68,0,0,0,2.94,2.07c83.64-9.66,142.82-80.43,132.4-157.92C296.32,55.18,231.39,2,154.57,2Zm-10,82.16v36.36a8.11,8.11,0,0,1-8.15,8.14,8.3,8.3,0,0,1-8.81-7.49v-37ZM134.4,243.27l-19.11-27.89a3.48,3.48,0,0,0,.67.65A13.79,13.79,0,0,0,119,218.2a10.78,10.78,0,0,0,8,.22,7.14,7.14,0,0,0,2.54-1.52,15.2,15.2,0,0,0,3.07-3.26c1.07-1.52,2.14-2.93,3.34-4.34a5.21,5.21,0,0,1,1.61-1.08,5,5,0,0,1,1.87-.33,4.21,4.21,0,0,1,1.6.33l1.2.65a19.2,19.2,0,0,1,2.14,2.28c1.2,1.73,2.54,3.36,3.87,5a11.21,11.21,0,0,0,3.08,2.17,10.83,10.83,0,0,0,8,.22,7.14,7.14,0,0,0,2.54-1.52,15.44,15.44,0,0,0,3.07-3.26,42.18,42.18,0,0,1,3.34-4.34,5.4,5.4,0,0,1,1.61-1.09,5.24,5.24,0,0,1,1.87-.32,4.35,4.35,0,0,1,1.6.32l1.2.66a13.64,13.64,0,0,1,2.14,2.27,49,49,0,0,0,4,5,11.37,11.37,0,0,0,3.07,2.17,11.56,11.56,0,0,0,4.28.87,11.92,11.92,0,0,0,3.47-.44l1.6-.65-17.36,25.29Zm66-98.87a2.75,2.75,0,0,0-.94-.11h-24a2.61,2.61,0,0,0-2.54,2.71,2.71,2.71,0,0,0,2.54,2.39h24c.27,0,.67-.11.94-.11v17.48H171.81a2.73,2.73,0,0,0-2.94,2.38,2.62,2.62,0,0,0,2.54,2.72h29v34l-.67.21a11.2,11.2,0,0,0-4.27,2.61c-.67.65-1.34,1.41-2,2.17a14,14,0,0,1-2.27,2.28,5.77,5.77,0,0,1-1.2.54,9.42,9.42,0,0,1-1.74.22,4.17,4.17,0,0,1-1.6-.33l-1.2-.65a13,13,0,0,1-2.14-2.28,50.06,50.06,0,0,0-4-5,11.31,11.31,0,0,0-3.07-2.17,11.56,11.56,0,0,0-4.28-.87,10.85,10.85,0,0,0-3.74.65,7.23,7.23,0,0,0-2.54,1.52,15.2,15.2,0,0,0-3.07,3.26c-1.07,1.52-2.14,2.93-3.34,4.34a3.85,3.85,0,0,1-1.6,1.08,3.54,3.54,0,0,1-1.87.33,4.22,4.22,0,0,1-1.61-.33l-1.2-.65a9.65,9.65,0,0,1-2.14-2.28c-1.2-1.73-2.54-3.36-3.87-5a14,14,0,0,0-3.07-2.17,9.72,9.72,0,0,0-4.28-.87,10.81,10.81,0,0,0-3.74.65,7.14,7.14,0,0,0-2.54,1.52,15.44,15.44,0,0,0-3.07,3.26c-1.07,1.52-2.14,2.93-3.34,4.34a3.83,3.83,0,0,1-1.61,1.09,3.6,3.6,0,0,1-1.87.32,4.39,4.39,0,0,1-1.6-.32,3.09,3.09,0,0,1-1.07-.55,13.33,13.33,0,0,1-2.14-2.28c-1.2-1.73-2.53-3.36-3.87-5a13.74,13.74,0,0,0-3.07-2.17,8.21,8.21,0,0,0-1.47-.54V171.64h28.05a2.61,2.61,0,0,0,2.54-2.71,2.7,2.7,0,0,0-2.54-2.39H109.82V149.17h23.24a2.74,2.74,0,0,0,2.94-2.39,2.61,2.61,0,0,0-2.54-2.71H109.82V94.36h12.29v26.05c0,7.16,6.28,13,14,13s14-5.87,14-13V84.05H159v36.47c.27,7.16,6.68,12.81,14.43,12.59,7.35-.22,13.36-5.75,13.63-12.59v-26h13.49Zm-19-49.93v26.05a8.12,8.12,0,0,1-8.15,8.14,8.31,8.31,0,0,1-8.82-7.49v-37h17V94.47Zm25.11-23.23c0,4.35-3.74,7.82-8.41,7.82H110.89c-4.68,0-8.42-3.47-8.42-7.82s3.74-7.81,8.42-7.81h87.24c4.67,0,8.41,3.47,8.41,7.81Zm-12.29-30.6V58.33H114.76V40.64c0-18.34,16-33.32,35.94-33.32h7.75c19.77.11,35.8,15,35.8,33.32Z" transform="translate(-2 -2)"/><polygon class="cls-1" points="162.2 28.8 158.4 45.4 164.5 45.4 163.1 59.5 174.8 38.4 167.1 38.4 170.2 28.8 162.2 28.8"/></svg>