<svg id="Layer_1" data-name="Layer 1" xmlns="http://www.w3.org/2000/svg" viewBox="0 0 887.67 370"><defs><style>.cls-1{fill:#00aeef;}.cls-2{font-size:30px;fill:#fff;font-family:Raleway-Regular, Raleway;letter-spacing:0.04em;}.cls-3{letter-spacing:0.05em;}.cls-4{letter-spacing:0.02em;}.cls-5{letter-spacing:0.02em;}.cls-6{letter-spacing:0.02em;}.cls-7{letter-spacing:0.05em;}.cls-8{letter-spacing:0.05em;}.cls-9{letter-spacing:0.02em;}.cls-10{letter-spacing:0.03em;}.cls-11{letter-spacing:0.02em;}.cls-12{letter-spacing:0.02em;}.cls-13{letter-spacing:0.02em;}.cls-14{letter-spacing:0.04em;}.cls-15{letter-spacing:0.05em;}</style></defs><title>Logo</title><path class="cls-1" d="M378.48,269.78A114.15,114.15,0,0,0,365.14,497.3a2.06,2.06,0,0,0,.48-4.1h0A110,110,0,0,1,357.28,276a30.94,30.94,0,0,0-12.67,25v14.31a10.47,10.47,0,0,0,1.23,20.86h8.37v4.22H343a2,2,0,0,0-2.06,2.06v93.65a2.08,2.08,0,0,0,.32,1.11l36,56.74a2.07,2.07,0,0,0,3.49,0l36-56.74,0-.06a2.87,2.87,0,0,0,.18-.4.93.93,0,0,0,0-.13,2.25,2.25,0,0,0,.08-.52V342.4a2.12,2.12,0,0,0-.61-1.46,2.09,2.09,0,0,0-1.46-.6H402.75v-4.22h8.37a10.47,10.47,0,0,0,1.23-20.86V301a30.94,30.94,0,0,0-12.67-25,110,110,0,0,1-7.56,217.14,2.07,2.07,0,0,0,.51,4.1,114.15,114.15,0,0,0-14.15-227.42ZM371,336.12v29.33a6.34,6.34,0,1,1-12.67,0V336.12Zm-7.61,128.3-14.27-22.49c.15.18.3.36.46.53a8.37,8.37,0,0,0,2.32,1.73,7.47,7.47,0,0,0,6,.16,7.26,7.26,0,0,0,1.94-1.19,13.6,13.6,0,0,0,2.33-2.66,30.08,30.08,0,0,1,2.53-3.47,4.39,4.39,0,0,1,1.16-.88,3.19,3.19,0,0,1,1.37-.3,3.31,3.31,0,0,1,1.22.23,3.86,3.86,0,0,1,.88.55,9.87,9.87,0,0,1,1.6,1.87,30.24,30.24,0,0,0,2.94,4,8.09,8.09,0,0,0,2.32,1.73,7.47,7.47,0,0,0,6,.16,7.21,7.21,0,0,0,1.93-1.19,13.34,13.34,0,0,0,2.34-2.66A28.94,28.94,0,0,1,389,437a4.24,4.24,0,0,1,1.16-.88,3.16,3.16,0,0,1,1.37-.3,3.31,3.31,0,0,1,1.22.23,3.66,3.66,0,0,1,.88.55,9.52,9.52,0,0,1,1.6,1.87,30.38,30.38,0,0,0,2.95,4,8.09,8.09,0,0,0,2.32,1.73,7.15,7.15,0,0,0,3.18.71,8.37,8.37,0,0,0,2.62-.39,7.13,7.13,0,0,0,1.19-.52l-13,20.43Zm49.48-79.7a2.08,2.08,0,0,0-.71-.13H394.13a2.07,2.07,0,0,0,0,4.13h18.05a2.08,2.08,0,0,0,.71-.13v14.13H391.45a2.07,2.07,0,1,0,0,4.13h21.44v27.37l-.55.16a7.88,7.88,0,0,0-3.24,2.09,20.77,20.77,0,0,0-1.48,1.79,9,9,0,0,1-1.72,1.87,3.38,3.38,0,0,1-.91.46,4.24,4.24,0,0,1-1.32.18,3.08,3.08,0,0,1-1.22-.23,3.12,3.12,0,0,1-.88-.55,9.43,9.43,0,0,1-1.6-1.86,32.1,32.1,0,0,0-3-4,8.06,8.06,0,0,0-2.32-1.72,7.18,7.18,0,0,0-3.18-.72,7.29,7.29,0,0,0-2.81.55,7.81,7.81,0,0,0-1.94,1.19,13.32,13.32,0,0,0-2.33,2.67,31.09,31.09,0,0,1-2.53,3.46,4.14,4.14,0,0,1-1.16.88,3,3,0,0,1-1.38.3,3,3,0,0,1-1.21-.23,3.12,3.12,0,0,1-.88-.55,9.15,9.15,0,0,1-1.6-1.86,32,32,0,0,0-2.94-4,8.4,8.4,0,0,0-2.32-1.72,7.15,7.15,0,0,0-3.18-.72,7.33,7.33,0,0,0-2.81.55,7.81,7.81,0,0,0-1.94,1.19,13.64,13.64,0,0,0-2.33,2.67,29.86,29.86,0,0,1-2.53,3.46,3.87,3.87,0,0,1-1.16.88,2.92,2.92,0,0,1-1.37.3,3.12,3.12,0,0,1-1.22-.23A3.27,3.27,0,0,1,353,440a9.47,9.47,0,0,1-1.6-1.86,31,31,0,0,0-2.94-4,8.25,8.25,0,0,0-2.32-1.72A6.69,6.69,0,0,0,345,432V406.85h21.31a2.07,2.07,0,0,0,0-4.13H345v-14h17.38a2.07,2.07,0,1,0,0-4.13H345V344.47h9.18v21a10.47,10.47,0,1,0,20.94,0V336.12h6.65v29.33a10.48,10.48,0,0,0,20.95,0v-21h10.14Zm-14.28-40.33v21.06a6.34,6.34,0,1,1-12.67,0V336.12h12.67Zm18.85-18.74a6.35,6.35,0,0,1-6.34,6.34H345.84a6.34,6.34,0,0,1,0-12.68h65.28a6.35,6.35,0,0,1,6.34,6.34ZM408.21,301v14.23H348.74V301a26.87,26.87,0,0,1,26.86-26.86h5.76A26.85,26.85,0,0,1,408.21,301Z" transform="translate(-264.33 -252)"/><polygon class="cls-1" points="110.17 30.95 106.42 45.43 112.5 45.43 111.07 57.84 122.84 39.36 115.08 39.36 118.18 30.95 110.17 30.95"/><path class="cls-1" d="M530.13,323.07h38.63a3.22,3.22,0,1,1,0,6.44H533.35v22.54H559.1a3.22,3.22,0,1,1,0,6.44H533.35V381h35.41a3.22,3.22,0,0,1,2.28,5.49,3.11,3.11,0,0,1-2.28,1H530.13a3.23,3.23,0,0,1-3.22-3.22v-58a3.23,3.23,0,0,1,3.22-3.22Z" transform="translate(-264.33 -252)"/><path class="cls-1" d="M609.59,384.25a3.24,3.24,0,0,1-3.22,3.22,3.24,3.24,0,0,1-3.22-3.22v-58a3.24,3.24,0,0,1,3.22-3.22,3.23,3.23,0,0,1,2.49,1.17l39.36,50.63V326.29a3.22,3.22,0,0,1,6.44,0v58a3.23,3.23,0,0,1-3.22,3.22,3.23,3.23,0,0,1-2.41-1.05l-39.44-50.71Z" transform="translate(-264.33 -252)"/><path class="cls-1" d="M689.05,323.07h38.64a3.22,3.22,0,0,1,0,6.44H692.27v22.54H718a3.22,3.22,0,0,1,0,6.44H692.27V381h35.42a3.24,3.24,0,0,1,3.22,3.22,3.24,3.24,0,0,1-3.22,3.22H689.05a3.24,3.24,0,0,1-3.22-3.22v-58a3.24,3.24,0,0,1,3.22-3.22Z" transform="translate(-264.33 -252)"/><path class="cls-1" d="M765.29,323.07h16.1a19.33,19.33,0,0,1,13.69,33,19.1,19.1,0,0,1-5.68,4l14,22.46a3.24,3.24,0,0,1-2.7,5,3.28,3.28,0,0,1-2.82-1.65L782.8,361.67c-.45,0-.92,0-1.41,0H768.51v22.54a3.22,3.22,0,0,1-6.44,0v-58a3.24,3.24,0,0,1,3.22-3.22Zm3.22,6.44v25.76h12.88a12.88,12.88,0,1,0,0-25.76Z" transform="translate(-264.33 -252)"/><path class="cls-1" d="M888.46,378.05a3.06,3.06,0,0,1-.92,2.26,31.62,31.62,0,0,1-20.24,7.16,32.2,32.2,0,0,1,0-64.4,31.39,31.39,0,0,1,20.48,7.37,3.19,3.19,0,0,1,.93,2.29,3.23,3.23,0,0,1-3.22,3.22,3.16,3.16,0,0,1-2.3-1A25.74,25.74,0,1,0,882,376.44V361.71H869.31a3.22,3.22,0,0,1,0-6.44h16a3.16,3.16,0,0,1,3.18,3.22Z" transform="translate(-264.33 -252)"/><path class="cls-1" d="M923.41,326.29a3.22,3.22,0,0,1,6.44,0v58a3.22,3.22,0,0,1-6.44,0Z" transform="translate(-264.33 -252)"/><path class="cls-1" d="M967.46,329.51a3.08,3.08,0,0,1-2.27-.94,3.23,3.23,0,0,1,2.27-5.5h45.08a3.24,3.24,0,0,1,3.22,3.22,3.15,3.15,0,0,1-.57,1.86L974.06,381h38.48a3.24,3.24,0,0,1,3.22,3.22,3.24,3.24,0,0,1-3.22,3.22H967.46a3.24,3.24,0,0,1-3.22-3.22,3.18,3.18,0,0,1,.69-2l41-52.73Z" transform="translate(-264.33 -252)"/><path class="cls-1" d="M1050.14,323.07h38.64a3.22,3.22,0,0,1,0,6.44h-35.42v22.54h25.76a3.22,3.22,0,0,1,0,6.44h-25.76V381h35.42a3.05,3.05,0,0,1,2.27,1,3.22,3.22,0,0,1-2.27,5.49h-38.64a3.24,3.24,0,0,1-3.22-3.22v-58a3.24,3.24,0,0,1,3.22-3.22Z" transform="translate(-264.33 -252)"/><path class="cls-1" d="M681.25,414.09l7.23,10.83,7.23-10.83a2,2,0,0,1,3.11-.25,2,2,0,0,1,.59,1.44,2.07,2.07,0,0,1-.31,1.15l-8.58,12.81V442a2,2,0,0,1-.6,1.44,1.93,1.93,0,0,1-1.44.6,2,2,0,0,1-1.43-.6,1.94,1.94,0,0,1-.61-1.44V429.24l-8.56-12.81a2,2,0,0,1-.33-1.15,1.93,1.93,0,0,1,.6-1.44,2,2,0,0,1,1.44-.6A1.89,1.89,0,0,1,681.25,414.09Z" transform="translate(-264.33 -252)"/><path class="cls-1" d="M745.64,428.63a15.43,15.43,0,1,1-4.52-10.87,15.65,15.65,0,0,1,3.4,5A15.21,15.21,0,0,1,745.64,428.63Zm-15.39-11.31a11.21,11.21,0,0,0-4.36.82,11.57,11.57,0,0,0-3.64,2.5,10.76,10.76,0,0,0-3.31,8,11.31,11.31,0,1,0,11.31-11.31Z" transform="translate(-264.33 -252)"/><path class="cls-1" d="M765.33,415.28v17.79a6.66,6.66,0,0,0,.54,2.66,6.91,6.91,0,0,0,3.63,3.66,6.53,6.53,0,0,0,2.68.55,6.67,6.67,0,0,0,2.67-.54,6.84,6.84,0,0,0,2.18-1.48,7.22,7.22,0,0,0,1.47-2.18,6.64,6.64,0,0,0,.54-2.67V415.28a1.93,1.93,0,0,1,.6-1.44,2,2,0,0,1,1.44-.6,2,2,0,0,1,2,2v17.79a10.67,10.67,0,0,1-.39,2.89,11.77,11.77,0,0,1-1.11,2.6,10.92,10.92,0,0,1-1.71,2.23,11.57,11.57,0,0,1-2.22,1.72,11,11,0,0,1-2.62,1.11,10.29,10.29,0,0,1-2.89.4,10.46,10.46,0,0,1-7.72-3.21,10.56,10.56,0,0,1-3.21-7.74V415.28a2,2,0,0,1,2-2,2,2,0,0,1,1.44.6A1.93,1.93,0,0,1,765.33,415.28Z" transform="translate(-264.33 -252)"/><path class="cls-1" d="M798.46,442v-26.7a2.15,2.15,0,0,1,.15-.8,2,2,0,0,1,.44-.65,2,2,0,0,1,.64-.44,2.09,2.09,0,0,1,.81-.15h7.42a9.09,9.09,0,0,1,3.67.75,9.49,9.49,0,0,1,3,2,9.8,9.8,0,0,1,2,3,9.08,9.08,0,0,1,.75,3.66,9.81,9.81,0,0,1-.32,2.48,9,9,0,0,1-.94,2.27,9.71,9.71,0,0,1-1.56,2,10.09,10.09,0,0,1-2.16,1.6l6.13,9.83a2.11,2.11,0,0,1,.33,1.12,2.16,2.16,0,0,1-.15.81,2,2,0,0,1-.44.64,1.8,1.8,0,0,1-.65.43,2,2,0,0,1-.8.16,2,2,0,0,1-1.75-1l-6.79-10.87h-5.73V442a2,2,0,0,1-2,2,1.93,1.93,0,0,1-1.44-.6A2,2,0,0,1,798.46,442Zm4.08-24.66v10.75h5.38a5.25,5.25,0,0,0,2.1-.42,5.17,5.17,0,0,0,1.7-1.17,5.59,5.59,0,0,0,1.15-1.71,5.18,5.18,0,0,0,.42-2.07,5.24,5.24,0,0,0-.42-2.09,5.4,5.4,0,0,0-2.87-2.87,5.22,5.22,0,0,0-2.08-.42Z" transform="translate(-264.33 -252)"/><path class="cls-1" d="M861.63,414.6l5.48,19.76,5.46-19.74a1.81,1.81,0,0,1,.71-1,2.1,2.1,0,0,1,1.26-.39,2.15,2.15,0,0,1,1.16.35,1.84,1.84,0,0,1,.76,1l5.48,19.76,5.5-19.76a1.88,1.88,0,0,1,.48-.76,2,2,0,0,1,1.45-.6,1.93,1.93,0,0,1,1.43.6,2,2,0,0,1,.59,1.44,3.63,3.63,0,0,1-.14.81L884,442.36a2.81,2.81,0,0,1-.81,1.21,1.88,1.88,0,0,1-1.25.45,1.83,1.83,0,0,1-1.42-.62,2.77,2.77,0,0,1-.62-1L874.54,423l-5.37,19.41a2.81,2.81,0,0,1-.81,1.21,2,2,0,0,1-2.69-.17,2.48,2.48,0,0,1-.6-1l-7.29-26.33a3,3,0,0,1-.11-.79,1.92,1.92,0,0,1,.59-1.44,2,2,0,0,1,2.89,0A2.12,2.12,0,0,1,861.63,414.6Z" transform="translate(-264.33 -252)"/><path class="cls-1" d="M907.07,442v-26.7a2,2,0,0,1,.16-.8,1.8,1.8,0,0,1,.43-.65,1.92,1.92,0,0,1,1.45-.59h7.43a9.08,9.08,0,0,1,3.66.75,9.49,9.49,0,0,1,3,2,9.62,9.62,0,0,1,2,3,9.08,9.08,0,0,1,.75,3.66,9.8,9.8,0,0,1-.31,2.48,9.41,9.41,0,0,1-.95,2.27,9.07,9.07,0,0,1-1.56,2A10.09,10.09,0,0,1,921,431l6.14,9.83a2.1,2.1,0,0,1,.32,1.12,2.16,2.16,0,0,1-.15.81,2,2,0,0,1-.43.64,2.12,2.12,0,0,1-1.46.59,2.06,2.06,0,0,1-1.75-1l-6.79-10.87h-5.73V442a2,2,0,0,1-.59,1.44,2,2,0,0,1-3.49-1.44Zm4.08-24.66v10.75h5.39a5.24,5.24,0,0,0,2.09-.42,5.11,5.11,0,0,0,1.71-1.17,5.57,5.57,0,0,0,1.14-1.71,5.18,5.18,0,0,0,.43-2.07,5.24,5.24,0,0,0-.43-2.09,5.52,5.52,0,0,0-1.15-1.72,5.59,5.59,0,0,0-1.71-1.15,5.26,5.26,0,0,0-2.08-.42Z" transform="translate(-264.33 -252)"/><path class="cls-1" d="M948.21,442a2,2,0,0,1-2,2,1.93,1.93,0,0,1-1.44-.6,2,2,0,0,1-.6-1.44v-26.7a2,2,0,0,1,2-2,2,2,0,0,1,1.44.6,1.93,1.93,0,0,1,.6,1.44Z" transform="translate(-264.33 -252)"/><path class="cls-1" d="M986,417.32h-7.6V442a2,2,0,0,1-4.08,0V417.32h-7.6a2,2,0,0,1-2-2,1.93,1.93,0,0,1,.6-1.44,2,2,0,0,1,1.44-.6H986a2,2,0,0,1,1.44.6,1.93,1.93,0,0,1,.6,1.44,2,2,0,0,1-2,2Z" transform="translate(-264.33 -252)"/><path class="cls-1" d="M1008.82,442a2,2,0,0,1-2,2,1.93,1.93,0,0,1-1.44-.6,2,2,0,0,1-.6-1.44v-26.7a2,2,0,0,1,2-2,2,2,0,0,1,1.44.6,1.93,1.93,0,0,1,.6,1.44Z" transform="translate(-264.33 -252)"/><path class="cls-1" d="M1025.25,442v-26.7a2,2,0,0,1,.16-.8,1.8,1.8,0,0,1,.43-.65,1.92,1.92,0,0,1,1.45-.59,2.06,2.06,0,0,1,1.58.75L1046,436.05V415.28a2,2,0,0,1,2-2,2,2,0,0,1,1.44.6,1.93,1.93,0,0,1,.6,1.44V442a2,2,0,0,1-.16.81,1.85,1.85,0,0,1-.43.64,1.8,1.8,0,0,1-.65.43,2,2,0,0,1-.8.16,2.07,2.07,0,0,1-1.56-.71l-17.18-22.07V442a2,2,0,0,1-.59,1.44,2,2,0,0,1-3.49-1.44Z" transform="translate(-264.33 -252)"/><path class="cls-1" d="M1091.28,439.13a2,2,0,0,1-.63,1.46A15.08,15.08,0,0,1,1081,444a15.39,15.39,0,0,1,0-30.78,15.21,15.21,0,0,1,9.87,3.6,1.81,1.81,0,0,1,.54,1.4,2,2,0,0,1-.16.81,1.85,1.85,0,0,1-.43.64,2.07,2.07,0,0,1-.65.44,2.15,2.15,0,0,1-.8.15,2,2,0,0,1-1.41-.58,11,11,0,0,0-3.22-1.77,11.24,11.24,0,0,0-3.74-.61,11.31,11.31,0,1,0,6.23,20.79v-6h-5.31a2,2,0,0,1-2-2,2.15,2.15,0,0,1,.16-.8,1.94,1.94,0,0,1,.43-.65,2,2,0,0,1,1.45-.59h7.37a2,2,0,0,1,.77.16,2.23,2.23,0,0,1,.65.45,2.13,2.13,0,0,1,.44.65,1.91,1.91,0,0,1,.16.78Z" transform="translate(-264.33 -252)"/><rect class="cls-1" x="268.15" y="173.95" width="129.86" height="5.37"/><text class="cls-2" transform="translate(266.25 246.83)">R<tspan class="cls-3" x="20.73" y="0">ea</tspan><tspan class="cls-4" x="57.87" y="0">l</tspan><tspan class="cls-5" x="66.69" y="0"> </tspan><tspan class="cls-6" x="74.91" y="0">W</tspan><tspan class="cls-7" x="106.77" y="0">riting</tspan><tspan class="cls-4" x="186" y="0"> </tspan><tspan x="194.31" y="0">A</tspan><tspan class="cls-7" x="215.73" y="0">dvi</tspan><tspan class="cls-8" x="261.69" y="0">c</tspan><tspan class="cls-7" x="279.6" y="0">e. </tspan><tspan class="cls-9" x="315.3" y="0">F</tspan><tspan class="cls-7" x="333.54" y="0">o</tspan><tspan class="cls-10" x="352.98" y="0">r</tspan><tspan class="cls-7" x="364.38" y="0"> </tspan><tspan x="373.62" y="0">R</tspan><tspan class="cls-7" x="394.35" y="0">ea</tspan><tspan class="cls-11" x="431.48" y="0">l</tspan><tspan class="cls-12" x="440.3" y="0"> </tspan><tspan class="cls-13" x="448.52" y="0">W</tspan><tspan class="cls-7" x="480.38" y="0">ri</tspan><tspan class="cls-14" x="500.63" y="0">t</tspan><tspan class="cls-15" x="511.88" y="0">ers.</tspan></text><text x="-264.33" y="-252"/></svg>
